Hanif_Medium_7_5_grf.mot
version=1
nRows=32
nColumns=19
inDegrees=yes
endheader
time	right_ground_force_vx	right_ground_force_vy	right_ground_force_vz	right_ground_force_px	right_ground_force_py	right_ground_force_pz	right_ground_torque_x	right_ground_torque_y	right_ground_torque_z	left_ground_force_vx	left_ground_force_vy	left_ground_force_vz	left_ground_force_px	left_ground_force_py	left_ground_force_pz	left_ground_torque_x	left_ground_torque_y	left_ground_torque_z
3.950000	5.418570	350.060000	28.993200	0.180950	0.000000	-1.442530	-22.140400	5.816120	-6.261280	0.145397	320.414000	-27.347200	0.207951	0.000000	-0.977671	23.922800	-5.832910	3.063120
3.955000	5.618660	350.325000	28.960200	0.181217	0.000000	-1.443330	-21.874900	5.843000	-6.171060	0.842209	321.799000	-27.179200	0.208016	0.000000	-0.977911	24.090800	-5.787620	3.081310
3.960000	5.260010	346.520000	28.652900	0.180516	0.000000	-1.442660	-21.873000	5.855770	-6.341200	0.676428	322.245000	-26.654500	0.208417	0.000000	-0.977496	23.993200	-5.854370	3.211000
3.965000	4.563710	343.070000	28.568100	0.180316	0.000000	-1.442710	-21.647200	5.809840	-6.340160	0.754005	320.571000	-26.503400	0.207706	0.000000	-0.978190	24.089600	-5.818610	2.963450
3.970000	3.960620	343.746000	27.510700	0.180321	0.000000	-1.443600	-21.394800	5.644180	-6.375960	0.470460	319.613000	-26.487500	0.208445	0.000000	-0.978123	24.001500	-5.787530	3.194360
3.975000	4.132510	341.332000	26.935500	0.180586	0.000000	-1.443580	-21.246200	5.645500	-6.242810	0.179668	319.668000	-26.208000	0.208227	0.000000	-0.977714	23.880400	-5.821940	3.123810
3.980000	3.887890	338.326000	26.817200	0.179801	0.000000	-1.443350	-21.138600	5.650370	-6.448280	0.142528	317.727000	-25.822600	0.208174	0.000000	-0.977900	23.794900	-5.794340	3.084210
3.985000	3.811100	338.478000	26.084500	0.179524	0.000000	-1.443440	-21.118700	5.695900	-6.551280	0.130235	317.575000	-26.239700	0.208639	0.000000	-0.977510	23.660100	-5.844900	3.244300
3.990000	3.239830	338.135000	25.722200	0.180008	0.000000	-1.443080	-21.229000	5.607550	-6.387930	-0.303004	316.800000	-25.449300	0.208176	0.000000	-0.977916	23.739100	-5.785840	3.073450
3.995000	2.902690	339.055000	25.548000	0.180177	0.000000	-1.443640	-21.099400	5.714240	-6.342310	-0.521319	315.187000	-25.028400	0.208403	0.000000	-0.977718	23.559900	-5.751200	3.124930
4.000000	3.088400	335.963000	25.803700	0.179576	0.000000	-1.443430	-20.975600	5.604080	-6.486510	-0.830847	312.692000	-24.161600	0.209370	0.000000	-0.978041	23.480700	-5.718130	3.393960
4.005000	3.067000	334.839000	26.125300	0.178831	0.000000	-1.443000	-21.050800	5.575360	-6.711380	-1.279270	312.589000	-23.838300	0.209571	0.000000	-0.977795	23.404700	-5.729610	3.453570
4.010000	2.998780	334.406000	26.148300	0.178828	0.000000	-1.443370	-20.900200	5.738120	-6.689460	-1.392530	312.645000	-23.374000	0.208818	0.000000	-0.978396	23.599200	-5.739240	3.209240
4.015000	3.420260	334.045000	26.049000	0.178899	0.000000	-1.444360	-20.541000	5.674620	-6.665330	-1.608700	308.757000	-23.025500	0.209736	0.000000	-0.978149	23.234100	-5.683220	3.455770
4.020000	3.284300	329.581000	26.136300	0.178773	0.000000	-1.443940	-20.405300	5.711620	-6.603320	-1.821200	307.359000	-23.406900	0.209331	0.000000	-0.978373	23.202300	-5.653510	3.325680
4.025000	3.303970	329.272000	26.086000	0.178416	0.000000	-1.443950	-20.381200	5.727110	-6.714140	-1.826210	306.065000	-22.546500	0.209671	0.000000	-0.978843	23.248500	-5.591820	3.398240
4.030000	3.085540	327.126000	25.611700	0.178401	0.000000	-1.443800	-20.301900	5.702140	-6.677500	-2.097200	305.747000	-22.777300	0.209561	0.000000	-0.977582	22.844600	-5.646320	3.371660
4.035000	3.097350	328.178000	25.506000	0.178723	0.000000	-1.444720	-20.063100	5.604560	-6.603970	-2.184750	303.703000	-22.355500	0.209515	0.000000	-0.978665	23.022400	-5.547430	3.325880
4.040000	2.317720	328.480000	24.977700	0.178871	0.000000	-1.443670	-20.437900	5.615780	-6.564680	-2.219780	304.392000	-22.141500	0.209204	0.000000	-0.978494	23.022700	-5.522160	3.230390
4.045000	1.849810	328.080000	24.901800	0.178971	0.000000	-1.444470	-20.158000	5.634190	-6.520050	-2.065530	306.445000	-22.216200	0.209511	0.000000	-0.977309	22.812000	-5.616230	3.348260
4.050000	1.825010	326.431000	24.882600	0.178642	0.000000	-1.444320	-20.107200	5.596150	-6.594290	-2.120210	304.004000	-22.662500	0.209935	0.000000	-0.978066	22.862700	-5.688200	3.472860
4.055000	1.687580	325.636000	24.795000	0.179530	0.000000	-1.444650	-19.951600	5.539950	-6.290350	-1.460680	304.077000	-22.588300	0.210489	0.000000	-0.978286	22.921400	-5.637960	3.634090
4.060000	2.125020	325.473000	24.946300	0.179114	0.000000	-1.444670	-19.927500	5.634340	-6.415950	-1.594210	304.791000	-23.188200	0.209800	0.000000	-0.977681	22.793600	-5.704200	3.447390
4.065000	1.481860	325.903000	24.780500	0.178780	0.000000	-1.444060	-20.164400	5.796960	-6.521940	-1.262250	304.866000	-23.155900	0.210549	0.000000	-0.978011	22.893400	-5.692380	3.674170
4.070000	1.689530	325.327000	24.851600	0.178872	0.000000	-1.445270	-19.730900	5.768430	-6.480790	-1.278560	302.222000	-23.300300	0.210281	0.000000	-0.978825	22.941900	-5.770810	3.578060
4.075000	1.920970	326.136000	24.933400	0.179408	0.000000	-1.444930	-19.886100	5.802270	-6.320300	-1.180750	303.184000	-22.888700	0.210093	0.000000	-0.978597	22.943500	-5.754360	3.518710
4.080000	1.713800	325.327000	24.884300	0.179463	0.000000	-1.444820	-19.875100	5.834950	-6.282110	-1.177760	300.391000	-23.012700	0.210248	0.000000	-0.979129	22.892100	-5.730060	3.542220
4.085000	2.135830	321.973000	24.720400	0.179365	0.000000	-1.443930	-19.950600	5.934290	-6.237730	-0.829817	299.969000	-22.738200	0.209879	0.000000	-0.978819	22.760200	-5.763400	3.422120
4.090000	1.589700	323.981000	24.851000	0.178436	0.000000	-1.445020	-19.731200	5.828210	-6.587830	-0.842311	299.517000	-22.616800	0.210871	0.000000	-0.977855	22.437700	-5.872360	3.722850
4.095000	1.798900	321.988000	24.711300	0.179632	0.000000	-1.444330	-19.826400	5.866630	-6.155090	-0.888529	297.167000	-22.355200	0.210065	0.000000	-0.978195	22.363700	-5.822410	3.450960
4.100000	1.900730	322.524000	25.075500	0.179899	0.000000	-1.444820	-19.702100	5.816960	-6.078970	-0.583370	297.596000	-22.994700	0.210024	0.000000	-0.978400	22.450500	-5.744520	3.448230
4.105000	1.544870	323.486000	25.071100	0.179208	0.000000	-1.444680	-19.812300	5.847960	-6.320270	-1.306880	295.924000	-22.316500	0.210963	0.000000	-0.978989	22.513900	-5.728440	3.702300
